/* XPM */
static char *sprb2w2policeman[] = {
/* columns rows colors chars-per-pixel */
"80 80 16 1 ",
"  c black",
". c #212131",
"X c #313142",
"o c #3A426B",
"O c #7B4A5A",
"+ c #BD3A4A",
"@ c #C5BD42",
"# c #C58C7B",
"$ c #1073BD",
"% c #527384",
"& c #7B94AD",
"* c gray68",
"= c #E6B594",
"- c #FFEFDE",
"; c gray100",
": c None",
/* pixels */
"::::::::::::::::::::::::::::::::::::::::::::::::::::::::::::::::::::::::::::::::",
"::::::::::::::::::::::::::::::::::::::::::::::::::::::::::::::::::::::::::::::::",
"::::::::::::::::::::::::::::::::::::::::::::::::::::::::::::::::::::::::::::::::",
":::::::::::::::::::::::::::::::::::::::::::::::::ooooo::::::::::::::::::::::::::",
":::::::::::::::::::::::::::::::::::::::::::::::oo%XX%%XX::::::::::::::::::::::::",
"::::::::::::::::::::::::::::::::::::::::::::::o%%o@@o%%%XX::::::::::::::::::::::",
":::::::::::::::::::::::::::::::::::::::::::::o%%%o@@ %%%%%X:::::::::::::::::::::",
":::::::::::::::::::::::::::::::::::::::::::::o%%%o@@ %%%%%% ::::::::::::::::::::",
"::::::::::::::::::::::::::::::::::::::::::::o%%%%%@o%%%%%%%% :::::::::::::::::::",
"::::::::::::::::::::::::::::::::::::::::::::o%% XXX  %%%%%%%o ::::::::::::::::::",
"::::::::::::::::::::::::::::::::::::::::::::oo    .XX  %%%%%oo :::::::::::::::::",
":::::::::::::::::::::::::::::::::::::::::::Xo****oo..XX  %%ooo :::::::::::::::::",
":::::::::::::::::::::::::::::::::::::::::: **X..o***...XX ooooo ::::::::::::::::",
"::::::::::::::::::::::::::::::::::::::::::  .oooo...**..XX oooo ::::::::::::::::",
":::::::::::::::::::::::::::::::::::::::::::::.@@O##o.X&&... oXoo :::::::::::::::",
":::::::::::::::::::::::::::::::::::::::::::::.O@@O##OOXX%.. oXoo :::::::::::::::",
":::::::::::::::::::::::::::::::::::::::::::::O*$#--O@@@#X%   ooo :::::::::::::::",
"::::::::::::::::::::::::::::::::::::::::::::O-O-----#$;#OX%  ooo :::::::::::::::",
"::::::::::::::::::::::::::::::::::::::::::::O--O#----==-O@X ooo ::::::::::::::::",
"::::::::::::::::::::::::::::::::::::::::::::O##---------@@O# oo ::::::::::::::::",
":::::::::::::::oo::::::::::::::::::::::::::O---=###----#@O##   :::::::::::::::::",
"::::::::::::::o%%.::::::::::::::::::::::::: =------##--#@O#O :::::::::::::::::::",
"::::::::::::::.X  ::::::::::::::::::::::::: =--------#-=O#  ::::::::::::::::::::",
"::::::::::::::  XX.::::::::::::::::::::::ooo O=-------=== ::..::::::::::::::::::",
"::::::::::::::: XX ::::::::::::::::::::XX++@X%  ----===OO:   o :::::::::::::::::",
"::::::::::::::: XX :::::::::::::::::::X++XoX&&X=OO=##OO%. +@+  :::::::::::::::::",
":::::::::::::::: XX :::::::::::::::::Xo%&&X&&& ==#=oo%&&.&  X++ ::::::::::::::::",
":::::::::::::::: XX :::::::::::::::::X%o&&X&&& ==oo&&& X  o % ++ :::::::::::::::",
"::::::::::::::::: XX :::::::::::::::X%%o&&&oo&&XX&&&& o.&X &&&oX :::::::::::::::",
"::::::::::::::::: XX :::::::::::::Xoo%o&&&&&%Xo&&&&& oX&Xoo &&&&o:::::::::::::::",
":::::::::::::::::: XX :::::::::::X%%%Xo&&&&&X&&%oXX oX&Xoo. &&&&& ::::::::::::::",
":::::::::::::::::: XX :::::::::::XX%%%X&&&&&XooX%%% X o o.X.&&&&& ::::::::::::::",
"::::::::::::::::::: X.  O:::::::O##X%Xoo&&&&o&&o&%% oo   X.&&&%%%o::::::::::::::",
"::::::::::::::::::: .. -=O:::OOO####XX&&%o&o&&o&&&&& Xooo &&%%&&&o :::::::::::::",
":::::::::::::::::: ...==== :#---O####X%&&o&o;&o&&&&&&&   &&%&&&&&& :::::::::::::",
"::::::::::::::::: =O ## O= O-----O##X&oo%%&o&&o&o%%oo&%%XX&%&&&oooo:::::::::::::",
"::::::::::::::::: =---OX =O-----=###X&&&%&o&&o&&X&&&&oo%%Xo&&oo==-# ::::::::::::",
"::::::::::::::::: O=##O  =###-----=#X&&&o&o&&o&&oX&&&&%o%% &o===--- ::::::::::::",
":::::::::::::::::: ---# . =O------##.%&&o&o;&o&o&&ooXXXX%% o=--=---O::::::::::::",
":::::::::::::::::: ##OO#  #O=----#  oo&%o&o&&%&o&&&%%%%X%%% ----=--- :::::::::::",
"::::::::::::::::::: O##O .  O#--O ::.%oX%o%%%o&X%%%%%%o%%%% ----=---O:::::::::::",
":::::::::::::::::::::   .. ::   ::::.%%%%o%%X%%X%%%%%%X%%%% O-------=:::::::::::",
"::::::::::::::::::::::::  :::::::::: %%%%o%&X%%%XXo%%%X%%%X#O#------- ::::::::::",
":::::::::::::::::::::::::::::::::::::.%%%o%oX%%%%%%oXX%%%%X##OO------ ::::::::::",
":::::::::::::::::::::::::::::::::::::.%%%o%%X%%%%%%%%%%%%%X####=---=- ::::::::::",
"::::::::::::::::::::::::::::::::::::..%%%o%%X%%%o%%%%%%%%% ######--O :::::::::::",
":::::::::::::::::::::::::::::::::::..o%%%X%&%X%%o%%%%.....  ####O  :::::::::::::",
":::::::::::::::::::::::::::::::::::.X..oXXX oX%%%o%% &&XXXX     ::::::::::::::::",
"::::::::::::::::::::::::::::::::::: XXX ;;;*XX %%o% . .&XXX% +;+ :::::::::::::::",
"::::::::::::::::::::::::::::::::::: XXX *XX*;;*  .  X..&XXX& +++O ::::::::::::::",
"::::::::::::::::::::::::::::::::::::  X *XXX.*& X.X XX &XXX& O++; ::::::::::::::",
":::::::::::::::::::::::::::::::::::Xo.. *XXXX*& X.XX.X .&&&% &;;& ::::::::::::::",
":::::::::::::::::::::::::::::::::::XoXo &&%X.*& X.XX X.X..   &&& :::::::::::::::",
":::::::::::::::::::::::::::::::::::XoXoo  &&&&%      X.XXXXX    ::::::::::::::::",
":::::::::::::::::::::::::::::::::::XoXooooX    ooooo XX.XXX .:::::::::::::::::::",
"::::::::::::::::::::::::::::::::::XooXooooXooXooooooo      o :::::::::::::::::::",
":::::::::::::::::::::::::::::::::: XoXooXXXooXooXXXoooooXooo :::::::::::::::::::",
":::::::::::::::::::::::::::::::::: XX.Xooo   XXXooooooooXooo :::::::::::::::::::",
":::::::::::::::::::::::::::::::::: XX.XXXXXXX   ooooooooXoooX:::::::::::::::::::",
":::::::::::::::::::::::::::::::::: XX.XXXXXXXXX oooooooooXooo.::::::::::::::::::",
":::::::::::::::::::::::::::::::::: XX.XXXXXXXXX. ooooooooXooo ::::::::::::::::::",
":::::::::::::::::::::::::::::::::::.XX.XXXXXXX : ooooooooXooo ::::::::::::::::::",
"::::::::::::::::::::::::::::::::::: XX.XXXXXXX ::.oooooooXooo ::::::::::::::::::",
"::::::::::::::::::::::::::::::::::: XX.XXXXXXX ::.oooooooXooo ::::::::::::::::::",
"::::::::::::::::::::::::::::::::::::.X.XXXXXXX ::: ooooooXooo ::::::::::::::::::",
":::::::::::::::::::::::::::::::::::: XX.XXXXX.:::: XooXoooXoX:::::::::::::::::::",
":::::::::::::::::::::::::::::::::::: XX.XXXXX ::::: XoXoooXo :::::::::::::::::::",
"::::::::::::::::::::::::::::::::::::: X.XXXXX ::::: XXX.ooXX :::::::::::::::::::",
"::::::::::::::::::::::::::::::::::::: X.XXXXX :::::: XXX.X.X :::::::::::::::::::",
"::::::::::::::::::::::::::::::::::::: XX.XXXX :::::: XXXXX.XX ::::::::::::::::::",
"::::::::::::::::::::::::::::::::::::: .X.XX.X ::::::: XXXX.XX ::::::::::::::::::",
":::::::::::::::::::::::::::::::::::::: X.XXX. ::::::: XXXX.XX ::::::::::::::::::",
":::::::::::::::::::::::::::::::::::::: X.XXXX.:::::::: XXX.XX.::::::::::::::::::",
":::::::::::::::::::::::::::::::::::::.   XXXXX ::::::: XXoo.XX :::::::::::::::::",
"::::::::::::::::::::::::::::::::::::.%%XX  XXX :::::: XXooo.XX :::::::::::::::::",
":::::::::::::::::::::::::::::::::::.o    .. XX :::::: XXX.     :::::::::::::::::",
":::::::::::::::::::::::::::::::::::.........  ::::::::  .X%%XX  ::::::::::::::::",
"::::::::::::::::::::::::::::::::::::       ::::::::::: X%..   X ::::::::::::::::",
"::::::::::::::::::::::::::::::::::::::::::::::::::::::: X%oXXXX ::::::::::::::::",
"::::::::::::::::::::::::::::::::::::::::::::::::::::::::       :::::::::::::::::"
};
